<?xml version="1.0" encoding="UTF-8"?><svg id="_イヤー_2" xmlns="http://www.w3.org/2000/svg" viewBox="0 0 300 300"><defs><style>.cls-1{fill:#fff;}</style></defs><g id="_イヤー_1-2"><g><rect class="cls-1" x="131.92" y="144.16" width="29.49" height="26.49"/><rect class="cls-1" x="131.92" y="104.53" width="29.49" height="25.81"/><polygon class="cls-1" points="103.48 170.65 120.31 170.65 120.31 144.16 95.84 144.16 103.48 170.65"/><polygon class="cls-1" points="91.86 130.33 120.31 130.33 120.31 104.53 84.43 104.53 91.86 130.33"/><path class="cls-1" d="M150,0C67.16,0,0,67.16,0,150s67.16,150,150,150,150-67.16,150-150S232.84,0,150,0Zm-37.14,249.87c-7.74,0-14.02-6.27-14.02-14.02s6.28-14.02,14.02-14.02,14.02,6.28,14.02,14.02-6.27,14.02-14.02,14.02Zm67.25,.78c-7.74,0-14.02-6.27-14.02-14.02s6.27-14.02,14.02-14.02,14.02,6.28,14.02,14.02-6.28,14.02-14.02,14.02Zm53-182.06l-35.34,136.96c-.89,3.46-4.01,5.88-7.59,5.88H99.66v-13.82h85.88l3.39-13.13H98.98c-3.49,0-6.56-2.31-7.53-5.67l-22.51-78.09c-.68-2.37-.21-4.92,1.27-6.88,1.48-1.97,3.8-3.12,6.26-3.12H213.13l7.76-30.06c.89-3.46,4.01-5.88,7.59-5.88h29.69v13.82h-25.06Z"/><polygon class="cls-1" points="175.23 170.65 192.5 170.65 199.34 144.16 175.23 144.16 175.23 170.65"/><polygon class="cls-1" points="175.23 130.33 202.9 130.33 209.56 104.53 175.23 104.53 175.23 130.33"/></g></g></svg>