<?xml version="1.0" encoding="UTF-8"?><svg id="_イヤー_2" xmlns="http://www.w3.org/2000/svg" viewBox="0 0 300 300"><defs><style>.cls-1{fill:#fff;}</style></defs><g id="_イヤー_1-2"><g><path class="cls-1" d="M150,0C67.16,0,0,67.16,0,150s67.16,150,150,150,150-67.16,150-150S232.84,0,150,0Zm-50.18,54.6h51.95c31.52,0,57.05,25.53,57.05,57.05,0,19.31-9.55,36.19-23.98,46.62l46.4,61.94h-39.29l-38.63-51.28h-22.2v51.28h-31.3V54.6Zm0,206.24l-27.75-23.31h193.8l-166.05,23.31Z"/><path class="cls-1" d="M151.77,137.41c14.21,0,25.75-11.54,25.75-25.75s-11.54-25.53-25.75-25.53h-20.65v51.28h20.65Z"/></g></g></svg>