<?xml version="1.0" encoding="UTF-8"?><svg id="_イヤー_2" xmlns="http://www.w3.org/2000/svg" viewBox="0 0 425.18 61.65"><defs><style>.cls-1{fill:#fff;}.cls-2{fill:#019594;}.cls-3{fill:#ebcb2a;}.cls-4{fill:#ff6701;}.cls-5{fill:#29abe2;}</style></defs><g id="_イヤー_1-2"><g><g><circle class="cls-3" cx="30.82" cy="30.82" r="30.82"/><g><path class="cls-1" d="M50.41,16.72h-9.2v-3.75h4.5c.53,0,.96-.43,.96-.96v-1.28c0-.53-.43-.96-.96-.96H15.95c-.53,0-.96,.43-.96,.96v1.28c0,.53,.43,.96,.96,.96h4.5v3.75H11.24c-1.21,0-2.19,.98-2.19,2.19v29.65c0,1.21,.98,2.19,2.19,2.19H50.41c1.21,0,2.19-.98,2.19-2.19V18.92c0-1.21-.98-2.19-2.19-2.19Zm-26.68-3.75h14.18v3.75h-14.18v-3.75Z"/><polygon class="cls-2" points="35.04 29.67 35.04 20.72 26.61 20.72 26.61 29.67 17.66 29.67 17.66 38.1 26.61 38.1 26.61 47.05 35.04 47.05 35.04 38.1 43.99 38.1 43.99 29.67 35.04 29.67"/></g></g><g><path class="cls-2" d="M69.8,46.68c-1.68-1.06-2.7-1.82-3.06-2.3-.36-.48-.54-1.28-.54-2.4s.19-1.89,.56-2.36,1.48-1.32,3.33-2.52c2.3-1.51,5.65-4.01,10.05-7.5,.39-.31,.84-.45,1.34-.42s.92,.23,1.28,.61l1.03,1.09c.33,.35,.47,.77,.42,1.26s-.26,.88-.64,1.17c-4.71,3.67-7.95,6.07-9.74,7.19-.79,.5-1.27,.81-1.43,.95-.17,.14-.25,.32-.25,.54s.07,.4,.22,.53c.14,.12,.6,.45,1.37,.96,1.91,1.27,5.54,4.06,10.89,8.4,.37,.29,.58,.69,.61,1.2,.03,.51-.12,.93-.45,1.26l-1.06,1.15c-.35,.35-.78,.55-1.28,.59-.5,.04-.94-.11-1.34-.47-5.12-4.4-8.89-7.37-11.29-8.93Z"/><path class="cls-2" d="M90.98,36.26c-.5,0-.92-.18-1.26-.54-.34-.36-.51-.79-.51-1.29v-.59c0-.5,.18-.93,.53-1.29,.35-.36,.77-.54,1.24-.54,3.5-.02,7.5-.13,11.98-.34,.17,0,.25-.09,.25-.28-.02-.31-.03-.8-.03-1.46-.02-.5,.15-.93,.51-1.31,.36-.37,.79-.56,1.29-.56h1.28c.52,0,.94,.18,1.28,.54,.33,.36,.51,.8,.53,1.32,0,.12,0,.32,.02,.59,.01,.27,.02,.48,.02,.62,0,.17,.09,.25,.28,.25,2.76-.15,4.86-.28,6.31-.4,.5-.04,.93,.1,1.31,.42,.37,.32,.57,.73,.59,1.23l.03,.59c.04,.52-.1,.97-.42,1.35-.32,.38-.74,.59-1.26,.61-2.3,.19-4.45,.33-6.44,.44-.17,0-.25,.09-.25,.28,.06,1.6,.09,3.19,.09,4.79,0,.17,.05,.33,.16,.5,.73,1.41,1.09,3.03,1.09,4.85,0,3.07-.89,5.42-2.66,7.05-1.77,1.63-4.65,2.64-8.63,3.03-.52,.04-.98-.1-1.37-.42-.39-.32-.63-.74-.72-1.26l-.09-.78c-.06-.5,.06-.93,.37-1.31,.31-.37,.7-.58,1.18-.62,3.3-.31,5.4-1.13,6.31-2.46,.17-.25,.29-.49,.37-.72v-.03h-.06c-.93,.64-2.09,.96-3.48,.96-1.95,0-3.52-.56-4.71-1.7-1.19-1.13-1.79-2.63-1.79-4.49s.61-3.26,1.83-4.42c1.22-1.16,2.78-1.74,4.67-1.74,.77,0,1.61,.15,2.52,.44h.06s.03-.01,.03-.03c0-.17,0-.4-.02-.7-.01-.3-.02-.51-.02-.64,0-.19-.08-.29-.25-.31-4.5,.21-8.55,.33-12.16,.37Zm8.94,8.85c.47,.47,1.03,.7,1.7,.7s1.23-.23,1.7-.7c.47-.47,.7-1.03,.7-1.69s-.23-1.23-.7-1.7c-.47-.47-1.03-.7-1.7-.7s-1.23,.23-1.7,.7-.7,1.03-.7,1.7,.23,1.23,.7,1.69Z"/><path class="cls-2" d="M122.25,46.12c-.5,.02-.93-.15-1.29-.51-.36-.36-.54-.78-.54-1.26,.02-4.15,.16-8.69,.4-13.62,.02-.52,.21-.94,.58-1.26,.36-.32,.8-.48,1.32-.48h1.4c.5,0,.91,.18,1.24,.54,.33,.36,.48,.78,.44,1.26-.1,1.82-.19,3.34-.25,4.54,0,.02,.01,.03,.03,.03h.06c2.01-3.13,4.54-4.7,7.59-4.7,2.72,0,4.83,.92,6.33,2.77,1.5,1.85,2.25,4.56,2.25,8.15,0,8.83-5.14,13.56-15.43,14.18-.52,.02-.96-.13-1.34-.45-.37-.32-.58-.74-.62-1.26l-.09-1.06c-.04-.5,.1-.92,.44-1.28,.33-.35,.75-.55,1.24-.59,3.69-.27,6.37-1.17,8.04-2.71,1.67-1.53,2.5-3.82,2.5-6.84,0-4.02-1.28-6.03-3.83-6.03-1.58,0-3.03,.78-4.35,2.33-1.33,1.56-2.26,3.68-2.8,6.38-.1,.52-.35,.95-.73,1.29-.38,.34-.82,.52-1.32,.54l-1.28,.03Z"/><path class="cls-2" d="M152.39,53.28c-1.72,0-3.28-.87-4.68-2.6-1.4-1.73-2.1-3.86-2.1-6.39,0-3.92,1.34-7.1,4.03-9.53,2.69-2.44,6.28-3.65,10.78-3.65,3.75,0,6.81,1.07,9.18,3.22,2.36,2.15,3.55,4.91,3.55,8.29,0,2.94-.74,5.43-2.21,7.47-1.47,2.03-3.59,3.49-6.35,4.39-.5,.15-.97,.1-1.43-.14-.46-.24-.77-.61-.93-1.1l-.31-.9c-.15-.46-.11-.91,.11-1.35,.22-.45,.56-.76,1.04-.95,3.32-1.37,4.98-3.84,4.98-7.4,0-1.68-.47-3.1-1.4-4.28-.93-1.17-2.18-1.99-3.73-2.44-.17-.04-.28,.03-.34,.22-1.7,11.45-5.09,17.17-10.17,17.17Zm4.82-17.36c-2.1,.5-3.73,1.46-4.92,2.88-1.18,1.42-1.77,3.15-1.77,5.18,0,1.22,.21,2.25,.64,3.08,.42,.83,.88,1.24,1.35,1.24,.52,0,1.04-.35,1.57-1.06,.53-.7,1.09-2,1.7-3.89,.6-1.89,1.16-4.29,1.68-7.22,.02-.06,0-.12-.06-.17-.06-.05-.12-.07-.19-.05Z"/><path class="cls-2" d="M177.3,38.5c-.37-.17-.63-.46-.76-.89-.14-.42-.11-.82,.08-1.2,1.16-2.3,2.08-4.63,2.77-7,.14-.5,.42-.89,.84-1.18,.41-.29,.88-.4,1.4-.34l1.59,.19c.33,.02,.6,.18,.81,.47,.21,.29,.27,.6,.19,.93-.04,.1,.01,.17,.16,.19h4.23c.5,0,.92,.17,1.28,.51,.35,.34,.53,.76,.53,1.26v.16c0,1.27-.29,2.37-.87,3.33-.06,.15-.15,.28-.25,.4-.04,.04-.05,.09-.02,.16,.03,.06,.08,.09,.14,.09h.65c.37,0,.7,.09,1,.28,.1,.1,.16,.06,.16-.12,0-.02,0-.05-.02-.08-.01-.03-.02-.06-.02-.08v-.53c0-.5,.18-.92,.53-1.26s.78-.51,1.28-.51h.72c.17,0,.25-.09,.25-.28,.04-1.26,.06-2.26,.06-2.99,0-.5,.18-.92,.53-1.26s.78-.51,1.28-.51h1.09c.5,0,.92,.18,1.26,.53,.34,.35,.51,.78,.51,1.28,0,.71-.02,1.69-.06,2.96,0,.19,.08,.28,.25,.28h4.35c.5,0,.92,.18,1.28,.53,.35,.35,.53,.78,.53,1.28-.02,8-.32,12.83-.9,14.46-.04,.12,.02,.21,.19,.25,.41,.1,.75,.34,1,.7,.25,.36,.35,.76,.31,1.2-.08,.83-.18,1.5-.28,2.02-.1,.52-.3,.98-.58,1.38-.28,.4-.56,.71-.84,.9-.28,.2-.74,.35-1.37,.47-.63,.11-1.26,.19-1.88,.22-.62,.03-1.52,.05-2.71,.05h-7.22c-1.76-.02-3.07-.11-3.92-.26-.85-.16-1.43-.42-1.73-.78-.3-.36-.45-.91-.45-1.63v-6.66c0-.17-.09-.25-.28-.25h-.25c-.19,0-.28,.08-.28,.25-.27,3.94-1.64,6.88-4.11,8.83-.37,.29-.8,.38-1.28,.26-.48-.11-.83-.39-1.06-.82l-.68-1.12c-.23-.46-.29-.91-.19-1.37,.1-.46,.35-.86,.75-1.21,1.2-1.08,1.88-2.61,2.02-4.6,0-.15-.07-.22-.22-.22-.42,0-.77-.16-1.07-.47-.3-.31-.45-.67-.45-1.09v-6.72c0-.17-.08-.29-.25-.37Zm5.79,4.79v-3.64c0-.17-.09-.25-.28-.25h-.84c-.19,0-.28,.08-.28,.25v3.64c0,.17,.09,.25,.28,.25h.84c.19,0,.28-.08,.28-.25Zm.16-9.95c-.17,0-.28,.08-.34,.25-.21,.56-.46,1.14-.75,1.74-.08,.17-.03,.25,.16,.25h1.65c.15,0,.27-.07,.37-.22l.06-.06c.31-.46,.68-1.03,1.12-1.71,.04-.04,.05-.09,.02-.16-.03-.06-.08-.09-.14-.09h-2.15Zm4.79,9.95v-3.64c0-.17-.09-.25-.28-.25h-.87c-.17,0-.25,.08-.25,.25v3.64c0,.17,.08,.25,.25,.25h.87c.19,0,.28-.08,.28-.25Zm1.31,4.11v4.45c0,.5,.07,.79,.22,.87,.14,.08,.66,.14,1.56,.16,.27,0,.82,0,1.66,.02,.84,.01,1.39,.02,1.66,.02,.35,0,.92,0,1.7-.02,.78-.01,1.34-.02,1.7-.02,1.24,0,2.06-.06,2.44-.17,.38-.11,.64-.44,.76-.98,.04-.17-.03-.25-.22-.25-.75,0-1.57-.04-2.46-.12-.52-.04-.95-.25-1.29-.62-.34-.37-.53-.82-.58-1.34l-.09-1.59s-.02-.03-.05-.03-.06,.01-.08,.03c-.56,1.35-1.18,2.52-1.87,3.51-.27,.39-.65,.63-1.15,.72-.5,.08-.94-.03-1.34-.34l-.87-.59c-.37-.27-.6-.65-.67-1.14-.07-.49,.04-.93,.33-1.32,.83-1.22,1.49-2.69,1.98-4.4,.49-1.71,.83-3.92,1.04-6.64,0-.17-.08-.26-.25-.28h-.5c-.35,0-.68-.09-1-.28-.1-.1-.16-.06-.16,.12,0,.02,0,.05,.02,.08,.01,.03,.02,.06,.02,.08v8.06c0,.5-.18,.92-.53,1.26-.35,.34-.78,.51-1.28,.51h-.47c-.17,0-.25,.08-.25,.25Zm7.31-.59c-.04,.15,.02,.24,.19,.28,.91,.15,1.63,.22,2.15,.22,.31,0,.55-.18,.72-.53s.3-1.24,.39-2.66c.09-1.42,.14-3.58,.14-6.49,0-.19-.09-.29-.28-.31h-1.31c-.19,0-.28,.1-.28,.31-.33,3.75-.9,6.81-1.71,9.18Z"/><path class="cls-2" d="M210.09,48.89c-.5-.02-.9-.22-1.2-.61-.3-.38-.43-.81-.39-1.29,.25-2.92,.48-5.95,.68-9.08,.02-.5,.22-.92,.59-1.26,.37-.34,.8-.51,1.28-.51h2.74c.19,0,.28-.09,.28-.28v-2.46c0-.17-.09-.25-.28-.25h-3.23c-.5,0-.92-.18-1.26-.53-.34-.35-.51-.77-.51-1.24v-.5c0-.5,.17-.92,.51-1.28,.34-.35,.76-.53,1.26-.53h6.22c.5,0,.92,.18,1.28,.53,.35,.35,.53,.78,.53,1.28v7.4c0,.5-.18,.92-.53,1.26-.35,.34-.78,.51-1.28,.51h-3.27c-.19,0-.28,.09-.28,.28-.08,1.14-.15,1.99-.19,2.55,0,.19,.07,.28,.22,.28h3.7c.48,0,.88,.18,1.21,.53,.33,.35,.49,.77,.47,1.24l-.06,1.15c-.15,3.28-.35,5.66-.62,7.15-.27,1.49-.6,2.45-1,2.86-.39,.41-1.02,.62-1.87,.62-.77,0-2.06-.03-3.89-.09-.5-.02-.92-.21-1.26-.58s-.52-.78-.54-1.26v-.65c-.02-.5,.14-.91,.48-1.23,.34-.32,.74-.47,1.2-.45,.95,.06,1.6,.09,1.94,.09s.55-.23,.64-.7c.08-.47,.19-1.98,.31-4.53,0-.17-.08-.25-.25-.25h-.81c-.19,0-.29,.08-.31,.25-.04,.48-.25,.87-.62,1.18-.37,.31-.8,.45-1.27,.4l-.62-.03Zm25.66-.72c-.12,0-.17,.05-.12,.16,.73,2.43,1.31,4.54,1.74,6.35,.1,.5,.03,.95-.22,1.37-.25,.41-.61,.67-1.09,.78l-.56,.12c-.5,.1-.95,.03-1.35-.22-.4-.25-.66-.61-.76-1.09l-.19-.75c-.04-.17-.14-.25-.28-.25-3.94,.68-8.05,1.17-12.32,1.46-.5,.02-.92-.13-1.27-.45-.35-.32-.55-.73-.59-1.23l-.03-.53c-.02-.48,.13-.89,.45-1.24,.32-.35,.72-.56,1.2-.62,1.02-.06,2.67-.2,4.98-.4,.19,0,.28-.09,.28-.28v-2.92c0-.17-.08-.25-.25-.25h-1.49c-.15,0-.22,.06-.22,.19,0,.37-.13,.7-.39,.96-.26,.27-.58,.4-.95,.4h-1c-.5,0-.91-.18-1.24-.53-.33-.35-.5-.78-.5-1.27v-8.34c0-.5,.17-.91,.5-1.24,.33-.33,.75-.5,1.24-.5h4.04c.17,0,.25-.09,.25-.28v-.75c0-.17-.08-.25-.25-.25-.17,.02-.76,.07-1.79,.14-1.03,.07-1.8,.12-2.32,.14-.5,.02-.93-.13-1.31-.47-.37-.33-.58-.74-.62-1.21l-.03-.75c-.02-.39,.1-.74,.36-1.03,.26-.29,.59-.45,.98-.47,.12,0,.24-.07,.34-.22,.04-.08,.53-1.19,1.46-3.33,.21-.5,.53-.87,.98-1.12,.45-.25,.93-.34,1.45-.28l1.21,.16c.41,.06,.74,.29,.96,.67,.23,.38,.26,.78,.09,1.2,0,.02-.37,.8-1.12,2.33-.04,.04-.05,.09-.02,.16,.03,.06,.09,.09,.17,.09,2.09-.17,3.61-.31,4.54-.44,.06,0,.11-.03,.14-.09,.03-.06,.03-.11-.02-.16-.02-.04-.06-.12-.11-.25-.05-.12-.1-.22-.14-.28-.21-.41-.23-.85-.08-1.31,.16-.46,.45-.76,.89-.9l.68-.22c.48-.17,.95-.16,1.43,.02,.48,.18,.83,.49,1.06,.95,.89,1.74,1.69,3.43,2.4,5.07,.19,.46,.18,.9-.02,1.32-.2,.43-.51,.72-.95,.89l-1.52,.56s-.03,.04-.03,.06,.02,.03,.06,.03h.53c.5,0,.92,.17,1.26,.51,.34,.34,.51,.75,.51,1.23v7.53c0,.27-.1,.51-.31,.73-.21,.22-.46,.33-.75,.33Zm-10.14-3.67v-3.05c0-.17-.08-.25-.25-.25h-1.46c-.17,0-.25,.08-.25,.25v3.05c0,.19,.08,.28,.25,.28h1.46c.17,0,.25-.09,.25-.28Zm4.76-8.12v1.18c0,.19,.08,.28,.25,.28h2.58c.19,0,.24-.08,.16-.25-.35-.89-.56-1.4-.62-1.52-.06-.19-.19-.26-.37-.22l-1.71,.19c-.19,.06-.28,.18-.28,.34Zm0,5.07v3.05c0,.19,.08,.28,.25,.28h1.52c.17,0,.25-.09,.25-.28v-3.05c0-.17-.08-.25-.25-.25h-1.52c-.17,0-.25,.08-.25,.25Zm4.29,6.78s.03-.01,.03-.03-.01-.03-.03-.03h-4.04c-.17,0-.25,.08-.25,.25v2.36c0,.06,.02,.12,.06,.17,.04,.05,.09,.07,.16,.05,.29-.04,.76-.1,1.4-.19,.17-.04,.23-.15,.19-.31-.1-.41-.04-.82,.19-1.21,.23-.39,.56-.64,1-.75l1.31-.31Z"/><path class="cls-2" d="M242.44,40.99c-.5,0-.92-.18-1.26-.53s-.51-.77-.51-1.24v-5.35c0-.5,.17-.92,.51-1.27s.76-.53,1.26-.53h2.58c.06,0,.11-.03,.14-.08,.03-.05,.04-.1,.02-.14-.39-.75-.61-1.14-.65-1.18-.21-.37-.22-.75-.03-1.14s.49-.62,.9-.7l.93-.19c.54-.1,1.05-.05,1.54,.17,.49,.22,.87,.56,1.14,1.04,.12,.23,.3,.58,.53,1.04,.23,.47,.38,.77,.47,.92,.06,.17,.21,.25,.44,.25h1.43c.17,0,.25-.08,.25-.25v-2.12c0-.5,.18-.92,.53-1.26,.35-.34,.77-.51,1.24-.51h1.56c.5,0,.92,.17,1.26,.51s.51,.76,.51,1.26v2.12c0,.17,.08,.25,.25,.25h1.59c.19,0,.32-.06,.4-.19,.46-.79,.81-1.46,1.06-2.02,.23-.48,.57-.82,1.03-1.04,.46-.22,.93-.29,1.43-.2l.84,.19c.46,.1,.79,.35,1,.75,.21,.39,.21,.79,0,1.18-.06,.12-.16,.31-.3,.56-.14,.25-.23,.44-.3,.56-.02,.04-.02,.09,.02,.14,.03,.05,.08,.08,.14,.08h2.52c.5,0,.92,.18,1.26,.53s.51,.78,.51,1.27v5.35c0,.5-.17,.92-.51,1.26-.34,.34-.76,.51-1.26,.51h-1.31c-.17,0-.37-.04-.62-.12-.17-.04-.25,0-.25,.12v3.08c0,.5-.17,.92-.51,1.26s-.76,.51-1.26,.51h-5.47c-.17,0-.25,.09-.25,.28v.78c0,.17,.08,.25,.25,.25h7.22c.5,0,.92,.18,1.26,.53,.34,.35,.51,.77,.51,1.24v.16c0,.5-.18,.92-.53,1.28s-.77,.53-1.24,.53h-7.22c-.17,0-.25,.08-.25,.25v.87c0,.17,.08,.26,.25,.28h9.33c.5,0,.91,.17,1.24,.51,.33,.34,.5,.76,.5,1.26v.47c0,.5-.17,.92-.5,1.28-.33,.35-.75,.53-1.24,.53h-24.26c-.5,0-.91-.18-1.24-.53-.33-.35-.5-.78-.5-1.28v-.47c0-.5,.17-.92,.5-1.26,.33-.34,.75-.51,1.24-.51h9.33c.17,0,.25-.09,.25-.28v-.87c0-.17-.08-.25-.25-.25h-7.22c-.5,0-.92-.18-1.26-.53-.34-.35-.51-.78-.51-1.28v-.16c0-.5,.18-.92,.53-1.26,.35-.34,.77-.51,1.24-.51h7.22c.17,0,.25-.08,.25-.25v-.78c0-.19-.08-.28-.25-.28h-5.47c-.5,0-.92-.17-1.26-.51-.34-.34-.51-.76-.51-1.26v-3.08c0-.12-.08-.17-.25-.12-.25,.08-.46,.12-.62,.12h-1.31Zm3.33-5.26c-.17,0-.25,.09-.25,.28v.75c0,.15,.08,.2,.25,.16,.25-.08,.46-.12,.62-.12h16.55c.14,0,.35,.04,.62,.12,.17,.04,.25,0,.25-.16v-.75c0-.19-.08-.28-.25-.28h-17.79Zm13.97,6.47v-1.65c0-.19-.08-.28-.25-.28h-9.64c-.17,0-.25,.09-.25,.28v1.65c0,.17,.08,.25,.25,.25h9.64c.17,0,.25-.08,.25-.25Z"/></g><g><path class="cls-5" d="M74.38,18.86c-1.11,0-2.07-.63-2.88-1.89-.81-1.26-1.21-2.99-1.21-5.18,0-1.4,.09-2.71,.28-3.94,.04-.28,.18-.5,.4-.67,.22-.17,.47-.24,.75-.22l.33,.02c.26,.02,.46,.14,.62,.34,.16,.21,.21,.44,.17,.71-.18,1.13-.27,2.39-.27,3.76,0,1.44,.19,2.6,.57,3.49,.38,.89,.77,1.34,1.17,1.34,.24,0,.51-.24,.78-.73,.28-.49,.54-1.25,.8-2.29,.07-.27,.21-.47,.43-.62s.46-.19,.72-.15l.25,.03c.27,.04,.47,.18,.61,.4,.14,.22,.18,.46,.12,.72-.81,3.26-2.03,4.89-3.66,4.89Zm7.49-2.85c-.3-2.71-.97-5.15-2.02-7.31-.11-.22-.12-.45-.02-.69,.09-.24,.26-.4,.51-.49l.28-.1c.27-.09,.53-.09,.79,0,.26,.09,.45,.27,.56,.53,1.12,2.35,1.84,5,2.14,7.94,.02,.27-.06,.5-.23,.69-.18,.19-.4,.3-.65,.33l-.3,.02c-.28,.01-.52-.07-.72-.24-.2-.17-.31-.4-.33-.68Z"/><path class="cls-5" d="M86.35,10.1l-.07-.32c-.04-.27,0-.51,.16-.73s.35-.36,.61-.42c.76-.18,1.31-.32,1.67-.42,.8-.2,1.43-.36,1.88-.47s1.04-.21,1.75-.31c.72-.09,1.42-.14,2.09-.14,1.82,0,3.24,.41,4.25,1.23,1.01,.82,1.51,1.94,1.51,3.38,0,1.93-.7,3.42-2.09,4.48-1.39,1.06-3.72,1.79-6.98,2.19-.28,.03-.52-.03-.73-.2s-.33-.38-.38-.63l-.07-.32c-.04-.26,.01-.49,.17-.69,.16-.21,.38-.33,.64-.36,2.57-.32,4.37-.82,5.41-1.5,1.03-.68,1.55-1.62,1.55-2.84,0-.8-.3-1.42-.9-1.86-.6-.44-1.48-.66-2.64-.66-.6,0-1.23,.05-1.89,.14s-1.2,.2-1.62,.31c-.42,.11-1,.27-1.74,.47-.18,.06-.45,.13-.82,.23s-.59,.15-.67,.18c-.26,.07-.49,.03-.71-.12-.22-.14-.35-.35-.41-.62Z"/><path class="cls-5" d="M103.29,13.54c-.28-.01-.51-.12-.69-.33-.18-.21-.26-.46-.24-.73,.01-.27,.12-.49,.33-.66,.21-.17,.44-.25,.71-.23,1.01,.08,1.9,.12,2.67,.13,.1,0,.16-.04,.17-.13,.01-.16,.03-.39,.04-.7s.03-.54,.04-.7c0-.07,0-.17,.02-.3,.01-.13,.02-.23,.03-.3,0-.1-.05-.15-.15-.15-1.02-.04-1.8-.08-2.32-.12-.27-.01-.49-.12-.67-.33-.18-.21-.26-.45-.23-.72,.01-.27,.12-.49,.33-.66,.21-.17,.44-.25,.71-.23,.51,.03,1.28,.07,2.3,.12,.11,0,.17-.04,.17-.13l.05-1.29c.01-.27,.12-.49,.32-.68s.43-.28,.7-.28h.38c.27,0,.49,.1,.68,.29,.18,.19,.27,.42,.26,.68-.01,.14-.02,.36-.04,.66s-.02,.51-.02,.64c0,.09,.04,.13,.13,.13,1.59-.02,2.93-.07,4.01-.15,.27-.02,.5,.06,.68,.23,.19,.18,.28,.4,.28,.65,0,.28-.09,.52-.28,.73-.18,.21-.41,.31-.69,.33-1.08,.08-2.45,.13-4.12,.15-.1,0-.15,.04-.15,.13-.01,.06-.02,.15-.02,.29s0,.24-.02,.29c-.01,.15-.03,.38-.05,.7s-.04,.56-.05,.7c0,.09,.04,.13,.13,.13,.77-.01,1.74-.06,2.9-.13,.27-.02,.5,.06,.69,.23,.19,.18,.29,.4,.29,.65,0,.28-.09,.52-.28,.73-.18,.21-.42,.31-.69,.33-1.21,.08-2.22,.12-3.02,.13-.1,0-.15,.05-.15,.15-.01,.32-.02,.79-.02,1.4,0,.87,.17,1.48,.52,1.84,.34,.36,.93,.54,1.75,.54,1.15,0,1.99-.19,2.53-.58,.54-.38,.81-.99,.81-1.81,0-.21-.03-.53-.1-.95-.04-.27,.01-.51,.17-.73s.36-.34,.62-.38l.28-.05c.28-.04,.53,.02,.74,.18,.22,.17,.35,.38,.41,.65,.09,.55,.13,1.02,.13,1.44,0,1.34-.45,2.37-1.35,3.11s-2.31,1.11-4.24,1.11c-1.64,0-2.82-.34-3.54-1.03-.72-.68-1.08-1.81-1.08-3.36,0-.3,.01-.77,.03-1.4,0-.09-.04-.13-.13-.13-.77-.01-1.66-.06-2.67-.13Z"/><path class="cls-5" d="M119.57,10.25c-.27,0-.49-.09-.68-.28-.18-.19-.28-.41-.28-.67v-.05c0-.27,.09-.49,.28-.68s.41-.28,.67-.28h5.02c.09,0,.13-.04,.13-.13v-2.2c0-.27,.09-.49,.28-.67,.19-.18,.42-.27,.68-.27h.37c.27,0,.5,.09,.68,.27,.19,.18,.28,.4,.28,.67v2.2c0,.09,.04,.13,.13,.13h5.02c.27,0,.49,.09,.68,.28,.18,.19,.28,.42,.28,.68v.05c0,.27-.09,.49-.28,.68-.19,.18-.41,.28-.67,.28h-4.91c-.1,0-.14,.05-.12,.15,.49,3.19,2.3,5.68,5.44,7.46,.21,.12,.35,.3,.41,.54,.06,.24,.02,.46-.12,.66l-.12,.18c-.16,.22-.37,.37-.64,.43-.27,.07-.53,.03-.76-.1-1.16-.65-2.2-1.49-3.12-2.55-.92-1.05-1.66-2.21-2.22-3.48-.01-.02-.03-.03-.06-.03s-.05,.01-.06,.03c-.58,1.28-1.34,2.45-2.29,3.5-.95,1.05-2.03,1.9-3.23,2.55-.24,.12-.5,.15-.76,.08-.26-.07-.48-.21-.64-.43l-.12-.18c-.15-.2-.19-.42-.13-.66,.06-.24,.19-.42,.42-.54,3.15-1.78,4.96-4.27,5.44-7.46,.02-.1-.02-.15-.12-.15h-4.91Z"/><path class="cls-5" d="M142.72,20.03c-1.27-.02-2.09-.12-2.47-.31-.38-.18-.57-.54-.57-1.08v-3.81c0-.09-.05-.14-.15-.15h-.32c-.1,0-.15,.05-.15,.15-.15,2.2-.9,3.84-2.25,4.91-.2,.16-.43,.2-.68,.14-.25-.06-.44-.2-.56-.43l-.15-.23c-.12-.24-.16-.49-.11-.74,.05-.25,.18-.46,.39-.64,.79-.72,1.22-1.74,1.3-3.04,0-.08-.04-.12-.13-.12h-.08c-.27,0-.49-.09-.67-.28-.18-.18-.27-.41-.27-.68v-3.12c0-.08-.04-.14-.13-.2-.2-.09-.34-.24-.42-.47-.08-.22-.06-.43,.05-.63,.61-1.12,1.14-2.39,1.57-3.79,.08-.26,.23-.46,.46-.61s.47-.21,.73-.19l.35,.03c.2,.02,.36,.12,.48,.29,.12,.17,.16,.36,.12,.58-.02,.07,0,.1,.08,.1h2.4c.24,0,.45,.08,.61,.24,.16,.16,.24,.36,.24,.61,0,.57-.13,1.1-.4,1.6-.06,.1-.16,.27-.3,.5-.02,.02-.03,.05,0,.08,.02,.03,.04,.04,.08,.04h.62c.27,0,.49,.09,.68,.28s.28,.4,.28,.66v4.01c0,.27-.09,.49-.28,.68s-.41,.28-.68,.28h-.42c-.09,0-.14,.05-.15,.15v2.8c0,.29,.04,.46,.13,.51,.09,.05,.4,.08,.93,.09,.12,0,.44,0,.95,0,.51,0,.83,0,.95,0,.2,0,.52,0,.97,0,.44,0,.77,0,.97,0,.73-.01,1.22-.05,1.45-.12,.23-.07,.38-.26,.45-.58,.02-.09-.01-.13-.1-.13-.03,0-.09,0-.17,0-.08,0-.14,0-.18,0-.31,0-.78-.03-1.4-.08-.28-.02-.51-.13-.68-.33-.18-.2-.28-.43-.3-.7-.01-.24,.07-.45,.25-.62,.18-.17,.38-.24,.62-.22,.3,.03,.53,.05,.7,.05,.21,0,.37-.1,.48-.31,.11-.21,.19-.74,.25-1.6s.09-2.18,.09-3.96c0-.09-.05-.13-.15-.13h-1.12c-.1,0-.16,.04-.17,.13-.13,1.82-.39,3.33-.76,4.51-.37,1.19-.89,2.23-1.54,3.13-.16,.21-.37,.34-.63,.38-.27,.04-.51-.02-.73-.19l-.13-.08c-.2-.14-.32-.34-.36-.6s.02-.49,.19-.7c.52-.73,.93-1.59,1.24-2.57,.3-.98,.51-2.26,.63-3.86,0-.1-.04-.15-.13-.15h-.53c-.27,0-.49-.09-.66-.28s-.26-.4-.26-.65,.09-.46,.27-.64,.4-.27,.65-.27h.63c.1,0,.16-.06,.17-.17,.02-.68,.03-1.22,.03-1.62,0-.27,.09-.49,.28-.68s.41-.28,.68-.28h.2c.27,0,.49,.09,.68,.28s.28,.41,.28,.68c0,.4-.02,.94-.05,1.62,0,.11,.05,.17,.15,.17h2.39c.27,0,.49,.09,.67,.28,.18,.18,.27,.41,.27,.68-.01,4.1-.15,6.61-.42,7.54-.02,.08,.01,.13,.1,.17,.24,.06,.44,.18,.58,.37,.14,.19,.2,.4,.18,.63-.04,.44-.09,.8-.15,1.08-.06,.27-.16,.52-.3,.73-.15,.22-.29,.37-.43,.47-.15,.09-.38,.18-.71,.25s-.65,.11-.97,.13c-.32,.01-.79,.02-1.41,.03-.22,0-.56,0-1.03,0-.46,0-.81,0-1.04,0-.12,0-.45,0-.99,0-.54,0-.88,0-1.01,0Zm-3.96-7.16v-2.17c0-.09-.05-.13-.15-.13h-.65c-.09,0-.13,.04-.13,.13v2.17c0,.09,.04,.13,.13,.13h.65c.1,0,.15-.04,.15-.13Zm-.73-4.07h1.24c.1,0,.17-.04,.2-.13,.01-.01,.02-.02,.02-.04s0-.03,.02-.04c.18-.28,.4-.62,.65-1.03,.02-.02,.02-.05,0-.08-.02-.03-.04-.04-.08-.04h-1.47c-.09,0-.15,.04-.18,.12-.2,.5-.36,.88-.48,1.13-.01,.02,0,.05,0,.08,.02,.03,.04,.04,.07,.04Zm3.44,4.07v-2.17c0-.09-.04-.13-.13-.13h-.68c-.09,0-.13,.04-.13,.13v2.17c0,.09,.04,.13,.13,.13h.68c.09,0,.13-.04,.13-.13Z"/><path class="cls-5" d="M153.36,15.83c-.27-.02-.48-.13-.65-.33-.17-.2-.24-.43-.22-.68,.13-1.49,.26-3.04,.37-4.64,.01-.27,.12-.49,.32-.66,.2-.17,.43-.26,.68-.26h1.62c.09,0,.13-.05,.13-.15v-1.67c0-.09-.04-.13-.13-.13h-1.94c-.26,0-.47-.09-.64-.27-.17-.18-.26-.4-.26-.66s.09-.48,.26-.66c.17-.18,.39-.27,.64-.27h3.19c.27,0,.49,.09,.68,.28s.28,.41,.28,.68v3.69c0,.27-.09,.49-.28,.68s-.41,.28-.68,.28h-1.79c-.1,0-.15,.04-.15,.13-.04,.75-.09,1.31-.13,1.7,0,.09,.04,.13,.13,.13h1.99c.26,0,.48,.09,.66,.28,.18,.19,.27,.41,.26,.67l-.02,.35c-.09,1.79-.2,3.09-.33,3.89-.13,.8-.3,1.31-.5,1.53-.2,.22-.52,.33-.95,.33-.13,0-.81-.02-2.02-.07-.27-.01-.49-.11-.68-.31s-.28-.43-.29-.69c-.01-.26,.08-.47,.27-.65,.19-.18,.41-.26,.67-.23,.51,.03,.87,.05,1.07,.05,.21,0,.35-.14,.41-.43,.06-.28,.14-1.2,.23-2.76,0-.1-.05-.16-.15-.17h-.78c-.1,0-.15,.05-.15,.15-.02,.27-.14,.49-.35,.66s-.44,.25-.7,.24l-.05-.02Zm12.35-.05c.26-.07,.5-.04,.72,.07,.22,.11,.38,.29,.47,.55,.32,.94,.6,1.79,.83,2.57,.08,.26,.05,.5-.08,.73-.13,.23-.32,.38-.57,.44h-.03c-.26,.07-.5,.04-.73-.09-.23-.13-.39-.33-.47-.59-.01-.03-.03-.09-.05-.18-.02-.09-.04-.16-.05-.2-.02-.1-.08-.14-.17-.12-2.36,.4-4.61,.67-6.76,.8-.26,.01-.48-.06-.66-.23-.18-.16-.29-.38-.31-.64-.01-.26,.07-.48,.23-.66s.38-.29,.63-.31c.62-.03,1.59-.12,2.89-.27,.08,0,.12-.05,.12-.15v-2c0-.09-.04-.13-.13-.13h-1.22c-.07,0-.1,.03-.1,.1,0,.2-.07,.37-.21,.52s-.31,.22-.53,.22h-.27c-.27,0-.49-.09-.67-.28-.18-.18-.27-.41-.27-.68v-4.32c0-.27,.09-.49,.27-.68,.18-.18,.4-.28,.67-.28h2.32c.09,0,.13-.05,.13-.15v-.47c0-.08-.04-.12-.12-.12-.86,.07-1.69,.12-2.5,.15-.26,.01-.47-.07-.65-.23-.18-.17-.28-.37-.3-.62v-.1c-.01-.21,.06-.4,.2-.58,.14-.17,.33-.26,.55-.28,.08,0,.14-.03,.18-.1,.27-.53,.57-1.18,.9-1.94,.11-.26,.29-.45,.53-.58,.24-.13,.51-.18,.78-.13l.28,.07c.24,.03,.42,.15,.53,.36,.11,.21,.11,.42,0,.64-.14,.32-.38,.8-.7,1.44-.04,.07-.02,.1,.08,.1,.97-.07,1.96-.15,2.97-.25,.1,0,.13-.04,.08-.13-.02-.06-.06-.14-.12-.25-.06-.11-.1-.19-.13-.25-.12-.21-.15-.44-.07-.69,.08-.25,.24-.42,.48-.51l.05-.02c.26-.1,.51-.11,.77-.02s.46,.25,.6,.49c.42,.77,.89,1.66,1.4,2.67,.11,.22,.12,.46,.02,.7-.1,.25-.27,.41-.5,.5l-.63,.25s-.01,.04,0,.05h.07c.27,0,.49,.09,.68,.28s.28,.41,.28,.68v3.49c0,.27-.09,.49-.28,.68s-.41,.28-.68,.28h-2.47c-.09,0-.14,.04-.15,.13v1.75c0,.1,.05,.14,.15,.12,.11-.01,.28-.03,.51-.07,.23-.03,.4-.06,.51-.07,.09-.02,.12-.08,.1-.17l-.05-.17c-.08-.24-.06-.48,.07-.69,.12-.22,.31-.36,.55-.43Zm-3.99-2.14v-1.95c0-.09-.04-.13-.13-.13h-1.17c-.09,0-.14,.04-.15,.13v1.95c0,.09,.05,.13,.15,.13h1.17c.09,0,.13-.04,.13-.13Zm2.15-4.47v.65c0,.09,.05,.14,.15,.15h1.85s.06-.01,.08-.04,.02-.06,0-.09c-.18-.39-.32-.68-.42-.88-.04-.09-.11-.13-.2-.12-.14,.02-.36,.05-.65,.08-.29,.03-.51,.06-.65,.07-.11,.03-.17,.09-.17,.18Zm0,2.52v1.95c0,.09,.05,.13,.15,.13h1.23c.1,0,.16-.04,.17-.13v-1.95c0-.09-.06-.13-.17-.13h-1.23c-.1,0-.15,.04-.15,.13Z"/><path class="cls-5" d="M172.07,14.99c-.28,0-.51-.09-.71-.28-.19-.19-.3-.42-.31-.7l-.25-6.76c-.01-.27,.08-.5,.26-.69s.4-.29,.66-.29h.93c.27,0,.49,.1,.67,.29,.18,.19,.26,.43,.25,.69l-.25,6.76c-.01,.28-.11,.51-.31,.7-.19,.19-.43,.28-.71,.28h-.23Zm.4,1.37c.27,0,.5,.09,.68,.28,.19,.19,.28,.42,.28,.68v.45c0,.27-.09,.5-.28,.68s-.42,.28-.68,.28h-.57c-.27,0-.5-.1-.68-.29-.19-.19-.28-.42-.28-.68v-.45c0-.27,.09-.5,.28-.68s.42-.28,.68-.28h.57Z"/><path class="cls-5" d="M177.55,14.99c-.28,0-.51-.09-.71-.28-.19-.19-.3-.42-.31-.7l-.25-6.76c-.01-.27,.08-.5,.26-.69s.4-.29,.66-.29h.93c.27,0,.49,.1,.67,.29,.18,.19,.26,.43,.25,.69l-.25,6.76c-.01,.28-.11,.51-.31,.7-.19,.19-.43,.28-.71,.28h-.23Zm.4,1.37c.27,0,.5,.09,.68,.28,.19,.19,.28,.42,.28,.68v.45c0,.27-.09,.5-.28,.68s-.42,.28-.68,.28h-.57c-.27,0-.5-.1-.68-.29-.19-.19-.28-.42-.28-.68v-.45c0-.27,.09-.5,.28-.68s.42-.28,.68-.28h.57Z"/><path class="cls-5" d="M182.99,9.67c-.26,0-.47-.08-.64-.25-.17-.17-.26-.38-.26-.63s.09-.47,.27-.64c.18-.17,.39-.26,.63-.26h3.92c.26,0,.47,.09,.64,.26,.17,.17,.26,.39,.26,.64s-.09,.47-.27,.63c-.18,.17-.39,.25-.63,.25h-3.92Zm.4-2.5c-.22,0-.42-.08-.59-.25-.17-.17-.26-.36-.26-.59s.09-.43,.26-.59c.17-.17,.37-.25,.59-.25h3.29c.22,0,.42,.08,.58,.25,.17,.17,.25,.36,.25,.59s-.08,.43-.25,.59c-.17,.17-.36,.25-.58,.25h-3.29Zm-.85,12.17v-3.22c0-.27,.09-.49,.28-.68,.19-.18,.41-.28,.67-.28h3.14c.27,0,.49,.09,.67,.28,.18,.19,.27,.41,.27,.67v2.6c0,.27-.09,.49-.28,.67-.18,.18-.4,.27-.66,.27h-2.14s-.07,.03-.08,.08c0,.14-.05,.27-.15,.38-.1,.11-.22,.16-.37,.16h-.42c-.26,0-.48-.09-.66-.28s-.28-.4-.28-.66Zm.95-7.28c-.21,0-.4-.08-.56-.24-.16-.16-.24-.36-.24-.58s.08-.42,.24-.58,.35-.23,.56-.23h3.19c.21,0,.4,.08,.56,.23s.24,.35,.24,.58-.08,.42-.24,.58c-.16,.16-.35,.24-.56,.24h-3.19Zm0,2.37c-.21,0-.4-.08-.56-.24-.16-.16-.24-.36-.24-.58s.08-.42,.24-.58c.16-.16,.35-.23,.56-.23h3.19c.21,0,.4,.08,.56,.23,.16,.16,.24,.35,.24,.58s-.08,.42-.24,.58c-.16,.16-.35,.24-.56,.24h-3.19Zm.92,2.49v1c0,.09,.05,.13,.15,.13h1.15c.1,0,.15-.04,.15-.13v-1c0-.1-.05-.15-.15-.15h-1.15c-.1,0-.15,.05-.15,.15Zm12.43-3.57c.27,0,.49,.09,.67,.28,.18,.19,.27,.41,.27,.68s-.09,.48-.28,.67-.4,.28-.66,.28h-2.8c-.09,0-.13,.05-.13,.15v3.87c0,.27-.09,.49-.28,.68s-.41,.28-.68,.28h-.33c-.27,0-.49-.09-.68-.28-.18-.19-.28-.41-.28-.67v-3.87c0-.1-.05-.15-.15-.15h-3.12c-.27,0-.49-.09-.67-.28-.18-.18-.27-.41-.27-.67s.09-.49,.27-.68c.18-.19,.4-.28,.67-.28h3.12c.09,0,.14-.04,.15-.13V7.4c0-.09-.05-.13-.15-.13h-2.5c-.26,0-.47-.09-.65-.28-.18-.18-.27-.4-.27-.65s.09-.47,.27-.65c.18-.18,.39-.28,.65-.28h7.61c.26,0,.47,.09,.64,.27,.17,.18,.26,.4,.26,.66s-.09,.48-.27,.66c-.18,.18-.39,.27-.63,.27h-2.59c-.09,0-.13,.04-.13,.13v5.81c0,.09,.04,.13,.13,.13h2.8Zm-6.43-1.02c-.26,.09-.5,.08-.73-.03-.23-.11-.4-.29-.48-.55-.33-.9-.63-1.67-.88-2.3-.1-.24-.1-.48,0-.72,.1-.23,.27-.39,.52-.48h.02c.26-.09,.5-.09,.74,0,.24,.09,.41,.26,.51,.51,.38,.89,.69,1.67,.93,2.34,.08,.26,.06,.5-.05,.73-.11,.23-.29,.4-.53,.48l-.03,.02Zm6.33-4.11c.26,.08,.44,.24,.56,.48,.12,.25,.13,.5,.04,.75-.28,.79-.6,1.58-.97,2.37-.11,.25-.29,.42-.53,.51-.24,.09-.5,.09-.75,0h-.02c-.25-.09-.41-.26-.5-.5-.09-.24-.08-.49,.02-.73,.4-.91,.7-1.67,.9-2.29,.09-.26,.24-.44,.47-.55,.22-.11,.46-.13,.72-.05l.07,.02Z"/><path class="cls-5" d="M200.07,16.53c-.27,0-.49-.09-.67-.28-.18-.18-.27-.41-.27-.67s.09-.49,.28-.68c.18-.19,.4-.28,.66-.28h2.35c.1,0,.15-.04,.15-.13v-1.67c0-.09-.05-.14-.15-.15h-2.04c-.27,0-.49-.09-.66-.26-.17-.17-.26-.39-.26-.65s.09-.48,.26-.66c.17-.18,.39-.27,.66-.27h2.04c.1,0,.15-.04,.15-.13v-.97c0-.1-.04-.13-.13-.08l-.72,.32c-.25,.1-.49,.1-.74,0-.25-.11-.43-.28-.53-.51-.25-.57-.56-1.26-.93-2.07-.11-.22-.12-.45-.03-.69,.09-.24,.26-.41,.49-.53l.05-.02c.26-.1,.51-.11,.75-.02,.24,.09,.42,.26,.53,.5,.46,.97,.85,1.85,1.19,2.64,.01,.01,.03,.02,.04,.02s.02-.01,.02-.03v-3.3c0-.27,.09-.49,.28-.67,.18-.18,.4-.27,.66-.27h.3c.27,0,.49,.09,.67,.27,.18,.18,.27,.4,.27,.67v3.34s0,.03,.02,.03,.03,0,.04-.02c.42-.81,.82-1.72,1.2-2.72,.09-.26,.25-.44,.48-.54,.23-.11,.47-.11,.72-.02l.05,.02c.26,.09,.43,.25,.53,.48,.1,.23,.11,.48,.02,.73-.31,.82-.63,1.57-.95,2.24-.12,.24-.31,.41-.56,.5-.25,.09-.5,.08-.76-.03l-.67-.3c-.09-.04-.13-.02-.13,.08v.97c0,.09,.04,.13,.13,.13h1.72c.26,0,.47,.09,.65,.27,.18,.18,.27,.4,.27,.66s-.09,.48-.28,.65-.4,.26-.64,.26h-1.72c-.09,0-.13,.05-.13,.15v1.67c0,.09,.04,.13,.13,.13h1.97c.27,0,.49,.09,.67,.28,.18,.19,.27,.41,.27,.68s-.09,.48-.28,.67-.4,.28-.66,.28h-1.97c-.09,0-.13,.05-.13,.15v2.57c0,.27-.09,.49-.28,.67-.18,.18-.4,.27-.66,.27h-.3c-.27,0-.49-.09-.67-.28-.18-.18-.27-.4-.27-.66v-2.57c0-.1-.05-.15-.15-.15h-2.35Zm9.3-.02c-.27,0-.49-.09-.67-.28-.18-.19-.27-.41-.27-.67V6.85c0-.27,.09-.49,.28-.68s.4-.28,.66-.28h.17c.27,0,.49,.09,.67,.28,.18,.19,.27,.41,.27,.67V15.56c0,.27-.09,.49-.28,.68s-.4,.28-.66,.28h-.17Zm3.92-11.28c.27,0,.49,.09,.68,.28s.28,.4,.28,.66v11.18c0,.67-.02,1.17-.06,1.49s-.15,.6-.33,.8c-.18,.21-.41,.33-.68,.38-.27,.04-.7,.07-1.28,.07-.26,0-.71-.02-1.37-.05-.27-.01-.49-.11-.68-.31-.18-.19-.29-.43-.31-.69l-.02-.05c-.01-.26,.07-.47,.24-.65,.17-.18,.39-.26,.66-.25,.63,.02,.97,.03,1,.03,.31,0,.5-.03,.57-.1s.1-.29,.1-.67V6.16c0-.27,.09-.49,.28-.67,.18-.18,.41-.27,.68-.27h.25Z"/><path class="cls-5" d="M219.93,18.23c-.87,0-1.66-.46-2.36-1.38s-1.06-2.03-1.06-3.35c0-2.06,.71-3.73,2.14-5.02s3.32-1.93,5.69-1.93c1.97,0,3.58,.56,4.82,1.69,1.25,1.12,1.87,2.57,1.87,4.34,0,1.56-.4,2.88-1.19,3.98-.8,1.1-1.92,1.87-3.36,2.33-.27,.08-.52,.05-.75-.08-.23-.13-.4-.33-.48-.6l-.03-.08c-.08-.24-.06-.48,.06-.71,.12-.23,.3-.39,.56-.49,.95-.37,1.67-.92,2.18-1.66,.51-.74,.76-1.63,.76-2.67s-.31-1.92-.94-2.63c-.62-.71-1.45-1.16-2.49-1.34-.09-.02-.14,.02-.17,.13-.46,3.26-1.13,5.65-2.04,7.18-.9,1.52-1.97,2.29-3.2,2.29Zm2.84-9.53c-1.27,.26-2.26,.8-2.99,1.64s-1.08,1.85-1.08,3.05c0,.76,.14,1.38,.42,1.88,.28,.5,.57,.74,.87,.74,.21,0,.44-.13,.68-.38s.49-.65,.75-1.19c.26-.54,.52-1.29,.78-2.25,.26-.96,.49-2.09,.72-3.38,.01-.03,0-.06-.03-.08-.03-.02-.07-.03-.1-.02Z"/><path class="cls-5" d="M237.1,19.43c-1.09,0-2.02-.29-2.79-.88-.77-.59-1.15-1.26-1.15-2.02,0-.81,.38-1.6,1.13-2.38s1.78-1.39,3.07-1.84c.08-.03,.12-.09,.12-.17,0-.14,0-.37-.02-.68-.01-.31-.02-.53-.02-.68v-.6c0-.27,0-.46-.02-.58,0-.09-.05-.13-.15-.13-.79,.03-1.59,.05-2.39,.05-.26,0-.48-.09-.67-.28-.19-.18-.28-.41-.28-.67s.09-.48,.28-.67c.19-.18,.41-.28,.67-.28,.54,0,1.33-.02,2.35-.07,.1,0,.15-.04,.15-.13,0-.16,0-.39,0-.72,0-.32,0-.56,0-.72,0-.27,.09-.5,.28-.68s.41-.28,.67-.28h.3c.27,0,.49,.1,.68,.29,.19,.19,.28,.42,.28,.68v1.32c0,.09,.04,.13,.13,.13,1.12-.09,2.01-.16,2.67-.22,.27-.02,.5,.05,.69,.21,.19,.16,.3,.37,.31,.63,.02,.27-.05,.5-.23,.7s-.39,.31-.64,.33c-.67,.06-1.59,.13-2.77,.23-.08,0-.12,.04-.12,.13,.01,.14,.02,.36,.02,.64v.66c0,.09,0,.23,.02,.41s.02,.32,.02,.41c0,.03,.01,.06,.03,.09,.02,.03,.05,.04,.08,.02,.69-.09,1.37-.13,2.05-.13,1.45,0,2.6,.36,3.45,1.08,.85,.72,1.28,1.67,1.28,2.84,0,1.24-.37,2.23-1.12,2.98s-1.74,1.13-2.99,1.13c-.21,0-.51-.02-.9-.07-.27-.04-.47-.18-.62-.41s-.19-.48-.15-.76c.04-.26,.17-.45,.38-.59,.21-.14,.44-.19,.69-.16,.04,0,.13,0,.27,.02,.13,.02,.23,.02,.28,.02,.6,0,1.07-.18,1.42-.53,.34-.36,.52-.86,.52-1.5,0-1.37-.97-2.05-2.9-2.05-.47,0-.99,.04-1.57,.12-.1,.02-.16,.08-.17,.17,.01,.51,.02,1.29,.02,2.32,0,1.21-.2,2.06-.61,2.54-.41,.48-1.09,.72-2.04,.72Zm.3-5.02c-.62,.29-1.12,.61-1.48,.97-.36,.36-.54,.7-.54,1.03,0,.29,.14,.54,.42,.76,.28,.22,.59,.33,.95,.33,.33,0,.55-.07,.64-.23,.09-.15,.14-.51,.14-1.09v-1.69s-.02-.06-.05-.08-.06-.02-.08,0Zm8.66-6.68c.58,.69,1.03,1.24,1.35,1.65,.16,.21,.22,.45,.18,.71-.03,.26-.16,.47-.38,.63-.22,.16-.46,.22-.73,.18-.27-.04-.48-.17-.63-.39-.38-.48-.82-1.01-1.32-1.59-.17-.19-.24-.42-.21-.68s.14-.48,.34-.65c.21-.17,.45-.24,.72-.21,.27,.03,.49,.14,.67,.34Z"/><path class="cls-5" d="M250.2,19.4l-.32-.38c-.39-.46-.46-.98-.22-1.59,.61-1.52,.92-3.93,.93-7.21v-2.95c0-.27,.09-.49,.28-.68s.41-.28,.68-.28h4.74c.1,0,.15-.05,.15-.15v-.57c0-.27,.09-.49,.28-.68,.18-.19,.4-.28,.66-.28h.4c.27,0,.49,.09,.68,.28,.18,.19,.28,.42,.28,.68v.57c0,.09,.04,.14,.13,.15h4.79c.26,0,.47,.09,.64,.27,.17,.18,.26,.39,.26,.64s-.09,.46-.26,.64c-.17,.18-.39,.27-.64,.27h-4.47c-.07,0-.09,.03-.07,.1,.06,.13,.08,.27,.08,.4v.92c0,.09,.04,.13,.13,.13h4.21c.24,0,.45,.09,.62,.27,.17,.18,.25,.39,.25,.63s-.09,.44-.26,.62-.38,.26-.61,.26h-4.21c-.09,0-.13,.04-.13,.13v1.42c0,.1,.04,.15,.13,.15h3.74c.27,0,.49,.09,.68,.28s.28,.4,.28,.66v5.16c0,.27-.09,.49-.28,.67-.18,.18-.41,.27-.68,.27h-.62c-.19,0-.35-.07-.48-.21s-.2-.3-.2-.48c0-.06-.03-.08-.1-.08h-6.74c-.07,0-.1,.03-.1,.08,0,.18-.07,.34-.21,.48-.14,.14-.3,.21-.48,.21h-.57c-.27,0-.49-.09-.67-.28-.18-.18-.27-.4-.27-.66v-4.64l-.03-.02c-.19,1.84-.62,3.41-1.3,4.72-.11,.2-.29,.31-.53,.33-.24,.02-.43-.06-.58-.24Zm2.55-11.13v3.52c0,.65-.02,1.26-.05,1.85,0,.03,.02,.03,.05,0,.17-.32,.44-.48,.82-.48h3.24c.09,0,.14-.05,.15-.15v-4.37c0-.12,.03-.26,.08-.4,.02-.07,0-.1-.08-.1h-4.07c-.09,0-.13,.04-.13,.13Zm8.88,6.68h-6.68c-.09,0-.13,.05-.13,.15v2.44c0,.09,.04,.13,.13,.13h6.68c.09,0,.13-.04,.13-.13v-2.44c0-.1-.04-.15-.13-.15Z"/></g><g><path class="cls-5" d="M306.8,12.61v-1.77h13.07v1.77h-13.07Z"/><path class="cls-5" d="M320.64,8.69v-1.85h10.71v1.85c-.25,.82-.68,1.61-1.3,2.39-.62,.77-1.34,1.41-2.14,1.91l-1.29-1.58c1.29-.83,2.11-1.73,2.46-2.72h-8.44Zm3.17,.94h2.11c0,1.54-.11,2.77-.33,3.68-.22,.91-.58,1.66-1.08,2.23-.5,.57-1.21,1.1-2.15,1.56l-1.12-1.68c.71-.36,1.25-.74,1.6-1.16s.6-.98,.75-1.68,.22-1.69,.22-2.95Z"/><path class="cls-5" d="M333.82,7.65h3.74v-1.76h2.22v1.76h3.97v1.89c-.58,.89-1.32,1.7-2.23,2.43,.6,.44,1.56,1.18,2.87,2.21l-1.33,1.56c-1.18-.94-2.28-1.77-3.28-2.5v4.09h-2.22v-3.15c-1.25,.49-2.63,.89-4.12,1.2l-.5-1.95c1.74-.37,3.31-.88,4.72-1.56,1.41-.67,2.56-1.44,3.45-2.31h-7.29v-1.89Z"/><path class="cls-5" d="M346,9.44l1.71-.41c.35,1.22,.66,2.38,.94,3.5l-1.77,.42c-.26-1.18-.56-2.35-.88-3.51Zm8.8-.55c-.02,1.87-.26,3.37-.73,4.51s-1.19,1.98-2.16,2.55c-.97,.57-2.29,.93-3.96,1.08l-.36-1.71c1.39-.16,2.46-.46,3.2-.89,.75-.43,1.29-1.08,1.63-1.96s.51-2.1,.52-3.66l1.84,.09Zm-6.01,.23l1.76-.41c.37,1.31,.68,2.5,.94,3.56l-1.76,.41c-.35-1.38-.66-2.57-.94-3.56Z"/><path class="cls-5" d="M364.41,9.24h-3.97c-.55,1.32-1.41,2.55-2.57,3.69l-1.49-1.29c.74-.74,1.36-1.6,1.84-2.58,.49-.98,.79-1.96,.91-2.95l2.06,.11c-.04,.41-.1,.78-.18,1.11h5.68v.36c0,3.11-.7,5.4-2.09,6.86-1.39,1.46-3.64,2.31-6.73,2.55l-.33-1.89c2.33-.24,4.02-.8,5.06-1.67,1.04-.88,1.64-2.31,1.81-4.3Z"/><path class="cls-5" d="M369.44,8.69v-1.97h8.5v1.97c-.59,1.25-1.38,2.45-2.39,3.6,1.16,1.03,2.34,2.12,3.54,3.27l-1.46,1.44c-1.33-1.29-2.49-2.38-3.49-3.27-1.47,1.34-3.11,2.41-4.93,3.23l-.94-1.72c3.31-1.6,5.74-3.78,7.28-6.55h-6.11Z"/><path class="cls-5" d="M379.91,12.61v-1.77h13.07v1.77h-13.07Z"/></g><g><path class="cls-4" d="M294.72,56.99h6.66l-7.35-32.83h-3.93l-17.75,32.83h6.66l2.68-5.26h12.03l1.01,5.26Zm-10.01-11.22l5.7-11.2,2.15,11.2h-7.85Z"/><polygon class="cls-4" points="329.89 24.16 326.08 48.2 318.21 24.16 310.65 24.16 305.45 56.97 311.37 56.97 315.11 33.3 322.99 56.97 330.6 56.97 335.8 24.16 329.89 24.16"/><polygon class="cls-4" points="362.27 24.16 358.46 48.2 350.59 24.16 343.03 24.16 337.83 56.97 343.75 56.97 347.5 33.3 355.38 56.97 362.99 56.97 368.18 24.16 362.27 24.16"/><polygon class="cls-4" points="396.46 30.12 397.4 24.16 381.6 24.16 377.64 24.16 375.41 24.16 370.21 56.99 372.44 56.99 376.4 56.99 392.2 56.99 393.15 51.03 377.34 51.03 378.51 43.67 391.83 43.67 392.77 37.71 379.45 37.71 380.65 30.12 396.46 30.12"/><polygon class="cls-4" points="420.47 56.99 413.2 40.27 425.18 24.16 418.65 24.16 410.8 34.72 406.23 24.16 399.71 24.16 406.69 40.25 394.23 56.99 400.76 56.99 409.09 45.79 413.95 56.99 420.47 56.99"/></g></g></g></svg>